<svg width="48" height="48" viewBox="0 0 48 48" fill="none" xmlns="http://www.w3.org/2000/svg">
<path d="M33.4025 18.1979C33.6106 18.0038 33.7785 17.7707 33.8965 17.5118C34.0146 17.2528 34.0804 16.9732 34.0904 16.6888C34.1004 16.4044 34.0542 16.1209 33.9546 15.8543C33.855 15.5878 33.7038 15.3434 33.5097 15.1353C33.3157 14.9272 33.0826 14.7593 32.8236 14.6413C32.5647 14.5232 32.2851 14.4574 32.0007 14.4474C31.7163 14.4374 31.4327 14.4836 31.1662 14.5832C30.8996 14.6829 30.6553 14.834 30.4472 15.0281L24.1075 20.9387L18.1968 14.5969C17.8013 14.1918 17.263 13.9576 16.6971 13.9444C16.1311 13.9312 15.5824 14.1401 15.1685 14.5263C14.7546 14.9125 14.5082 15.4453 14.4822 16.0109C14.4561 16.5764 14.6525 17.1296 15.0292 17.5522L20.9398 23.8919L14.598 29.8026C14.3825 29.9946 14.2076 30.2279 14.0835 30.4885C13.9594 30.7491 13.8886 31.0319 13.8753 31.3203C13.8621 31.6086 13.9065 31.8968 14.0062 32.1677C14.1058 32.4386 14.2585 32.6869 14.4555 32.898C14.6524 33.1091 14.8895 33.2787 15.1529 33.3968C15.4163 33.515 15.7006 33.5793 15.9892 33.586C16.2778 33.5927 16.5648 33.5417 16.8334 33.436C17.102 33.3302 17.3468 33.1719 17.5533 32.9702L23.893 27.0617L29.8037 33.4014C29.9945 33.6209 30.2276 33.7997 30.489 33.9271C30.7504 34.0546 31.0348 34.1281 31.3253 34.1433C31.6157 34.1586 31.9063 34.1151 32.1796 34.0157C32.4529 33.9162 32.7033 33.7627 32.9161 33.5644C33.1288 33.3661 33.2994 33.127 33.4178 32.8613C33.5361 32.5956 33.5998 32.3088 33.6049 32.018C33.6101 31.7273 33.5567 31.4384 33.4478 31.1687C33.3389 30.899 33.1769 30.654 32.9713 30.4482L27.0628 24.1086L33.4025 18.1979Z" fill="#1ecb9b"/>
<path fill-rule="evenodd" clip-rule="evenodd" d="M0.166016 24.0001C0.166016 10.8376 10.8369 0.166748 23.9993 0.166748C37.1618 0.166748 47.8327 10.8376 47.8327 24.0001C47.8327 37.1626 37.1618 47.8334 23.9993 47.8334C10.8369 47.8334 0.166016 37.1626 0.166016 24.0001ZM23.9993 43.5001C21.4386 43.5001 18.9029 42.9957 16.537 42.0157C14.1712 41.0358 12.0215 39.5994 10.2108 37.7887C8.40002 35.9779 6.96367 33.8283 5.9837 31.4624C5.00373 29.0966 4.49935 26.5609 4.49935 24.0001C4.49935 21.4393 5.00373 18.9036 5.9837 16.5378C6.96367 14.1719 8.40002 12.0222 10.2108 10.2115C12.0215 8.40076 14.1712 6.9644 16.537 5.98443C18.9029 5.00446 21.4386 4.50008 23.9993 4.50008C29.1711 4.50008 34.131 6.55454 37.7879 10.2115C41.4449 13.8685 43.4994 18.8284 43.4994 24.0001C43.4994 29.1718 41.4449 34.1317 37.7879 37.7887C34.131 41.4456 29.1711 43.5001 23.9993 43.5001Z" fill="#1ecb9b"/>
</svg>
