
<svg width="42" height="43" viewBox="0 0 42 43" fill="none" xmlns="http://www.w3.org/2000/svg">
<mask id="mask0_1135_3731" style="mask-type:alpha" maskUnits="userSpaceOnUse" x="0" y="0" width="42" height="43">
<rect x="-0.5" y="0.5" width="41" height="41" rx="20.5" transform="matrix(-1 0 0 1 41 0.632324)" stroke="#0450B4"/>
</mask>
<g mask="url(#mask0_1135_3731)">
<g filter="url(#filter0_b_1135_3731)">
<rect x="-0.5" y="0.5" width="41" height="41" rx="20.5" transform="matrix(-1 0 0 1 41 0.632324)" stroke="#FF9A08"/>
</g>
</g>
<path fill-rule="evenodd" clip-rule="evenodd" d="M26.8387 16.6325L21.4178 20.3558C21.162 20.5017 20.8487 20.5017 20.5928 20.3558L15.172 16.6325H26.8387ZM26.8387 14.9658H15.172C13.7937 14.9658 12.672 16.0875 12.672 17.4658V25.7992C12.672 27.1775 13.7937 28.2992 15.172 28.2992H26.8387C28.217 28.2992 29.3387 27.1775 29.3387 25.7992V17.4658C29.3387 16.0875 28.217 14.9658 26.8387 14.9658Z" fill="#FF9A08"/>
<mask id="mask1_1135_3731" style="mask-type:alpha" maskUnits="userSpaceOnUse" x="12" y="14" width="18" height="15">
<path fill-rule="evenodd" clip-rule="evenodd" d="M26.8387 16.6325L21.4178 20.3558C21.162 20.5017 20.8487 20.5017 20.5928 20.3558L15.172 16.6325H26.8387ZM26.8387 14.9658H15.172C13.7937 14.9658 12.672 16.0875 12.672 17.4658V25.7992C12.672 27.1775 13.7937 28.2992 15.172 28.2992H26.8387C28.217 28.2992 29.3387 27.1775 29.3387 25.7992V17.4658C29.3387 16.0875 28.217 14.9658 26.8387 14.9658Z" fill="white"/>
</mask>
<g mask="url(#mask1_1135_3731)">
<rect x="11" y="11.6323" width="20" height="20" fill="#FF9A08"/>
</g>
<defs>
<filter id="filter0_b_1135_3731" x="-80" y="-79.3677" width="202" height="202" filterUnits="userSpaceOnUse" color-interpolation-filters="sRGB">
<feFlood flood-opacity="0" result="BackgroundImageFix"/>
<feGaussianBlur in="BackgroundImage" stdDeviation="40"/>
<feComposite in2="SourceAlpha" operator="in" result="effect1_backgroundBlur_1135_3731"/>
<feBlend mode="normal" in="SourceGraphic" in2="effect1_backgroundBlur_1135_3731" result="shape"/>
</filter>
</defs>
</svg>
